<?xml version="1.0" standalone="no"?>
<!DOCTYPE svg PUBLIC "-//W3C//DTD SVG 20010904//EN"
 "http://www.w3.org/TR/2001/REC-SVG-20010904/DTD/svg10.dtd">
<svg version="1.0" xmlns="http://www.w3.org/2000/svg"
 width="256.000000pt" height="256.000000pt" viewBox="0 0 256.000000 256.000000"
 preserveAspectRatio="xMidYMid meet">

<g transform="translate(0.000000,256.000000) scale(0.100000,-0.100000)"
fill="#000000" stroke="none">
<path d="M0 1280 l0 -1280 1280 0 1280 0 0 1280 0 1280 -1280 0 -1280 0 0
-1280z m2433 763 c-7 -3 -13 -15 -13 -28 0 -14 -9 -29 -21 -35 -11 -7 -18 -14
-15 -17 3 -3 12 -1 19 5 18 15 95 47 82 34 -5 -6 -30 -27 -55 -47 -25 -21 -52
-51 -60 -68 -8 -18 -24 -33 -35 -36 -11 -2 -28 -13 -38 -24 -16 -19 -16 -22
-2 -30 11 -6 30 2 68 29 48 35 50 36 26 8 -14 -16 -45 -55 -69 -87 -23 -32
-48 -61 -55 -65 -6 -4 -29 -27 -51 -52 l-39 -44 35 25 c19 14 46 26 60 27 l24
1 -29 -25 c-17 -13 -47 -36 -67 -49 -21 -14 -38 -28 -38 -31 0 -4 6 -1 14 5 8
7 30 13 48 13 18 0 60 15 93 32 72 37 95 47 95 41 0 -3 -18 -17 -40 -31 -22
-15 -37 -30 -35 -35 3 -4 -10 -20 -30 -36 -19 -15 -35 -36 -35 -45 0 -9 -8
-23 -17 -30 -10 -7 -18 -19 -18 -27 0 -8 -19 -20 -44 -27 -24 -7 -47 -18 -51
-24 -4 -6 -29 -17 -56 -25 -27 -7 -39 -14 -28 -14 24 -1 111 14 137 24 9 4 17
3 17 -3 0 -6 -9 -13 -19 -17 -11 -3 -18 -12 -15 -19 4 -9 -7 -16 -33 -21 -21
-4 -42 -10 -48 -15 -5 -4 -19 -10 -30 -13 -11 -3 9 -4 44 -3 57 3 63 2 46 -10
-10 -8 -23 -14 -27 -14 -5 0 -8 -6 -7 -12 5 -44 -1 -58 -28 -58 -40 2 -105
-10 -123 -22 -11 -7 -10 -8 8 -5 14 4 22 0 22 -9 0 -8 -8 -14 -19 -14 -10 0
-31 -12 -46 -26 -15 -14 -39 -30 -54 -36 -24 -10 -25 -11 -6 -18 l20 -9 -20
-1 c-19 -1 -18 -2 3 -12 32 -16 22 -33 -19 -31 -60 2 -98 10 -124 27 -32 21
-32 14 2 -21 14 -15 23 -22 19 -15 -4 6 -3 12 3 12 9 0 31 -31 31 -43 0 -3
-17 -7 -37 -10 -30 -3 -44 1 -63 18 -14 12 -38 25 -53 29 -28 7 -28 6 -13 -16
9 -13 21 -23 28 -23 19 0 34 -33 21 -46 -8 -8 -20 -5 -47 16 -42 32 -78 28
-69 -8 8 -36 4 -69 -13 -95 -15 -23 -16 -23 -35 -6 -12 11 -19 31 -19 53 0 20
-7 45 -15 55 -11 15 -15 16 -15 5 0 -8 5 -20 12 -27 8 -8 8 -15 -2 -27 -7 -9
-28 -46 -46 -82 -33 -66 -38 -69 -35 -27 1 11 -4 26 -12 33 -22 17 -33 -34
-12 -55 19 -20 19 -40 0 -48 -8 -3 -15 -16 -15 -30 0 -14 -5 -37 -11 -53 -6
-15 -11 -42 -11 -58 1 -17 -5 -48 -13 -70 l-13 -40 -10 26 c-6 14 -10 32 -10
40 2 37 -3 60 -12 54 -5 -3 -10 -20 -10 -38 0 -60 -22 -11 -26 57 -3 70 -5 80
-31 164 -17 53 -29 64 -39 37 -5 -13 -11 -12 -36 6 -17 12 -27 27 -24 35 3 8
1 14 -4 14 -6 0 -10 12 -10 26 0 16 -5 24 -12 21 -8 -2 -12 -19 -11 -41 2 -22
-1 -34 -7 -31 -6 3 -10 2 -10 -4 0 -6 -7 -8 -15 -5 -16 7 -34 65 -32 103 1 13
-6 28 -15 34 -14 9 -23 6 -47 -17 -16 -15 -34 -25 -40 -22 -15 9 -14 46 1 46
14 0 48 30 48 42 0 14 -53 -3 -80 -26 -25 -22 -90 -26 -90 -5 0 5 4 9 9 9 12
0 72 63 66 69 -3 2 -14 -4 -25 -14 -11 -10 -37 -19 -57 -21 -30 -3 -35 -2 -23
7 12 9 11 9 -5 3 -11 -4 -35 -9 -52 -12 -38 -5 -45 13 -10 24 21 7 21 7 2 15
-18 7 -18 8 5 9 25 1 25 1 -5 17 -16 9 -43 27 -58 39 -16 13 -34 24 -42 24 -7
0 -15 6 -18 14 -4 10 0 12 15 8 13 -3 19 -1 15 5 -4 6 -26 13 -49 17 -79 12
-110 26 -105 47 3 12 -4 26 -21 39 l-27 21 65 -5 65 -6 -68 22 c-43 14 -66 26
-63 34 3 7 -9 18 -27 25 -29 11 -30 13 -10 16 12 2 31 -1 42 -6 11 -6 32 -11
48 -11 l28 1 -30 16 c-16 9 -32 19 -35 23 -8 12 -67 40 -73 34 -3 -3 -8 -1
-12 5 -3 6 -1 11 6 11 6 0 0 9 -15 21 -14 11 -26 26 -26 32 0 15 -106 127
-120 127 -5 0 -10 5 -10 10 0 6 35 -7 78 -29 65 -34 172 -75 172 -65 0 7 -129
104 -138 104 -6 0 -13 3 -15 8 -3 4 10 7 29 6 24 -1 44 -10 64 -29 17 -16 30
-26 30 -22 0 3 -10 16 -23 29 -44 43 -147 165 -147 173 0 5 -10 20 -22 34
l-23 26 25 -20 c14 -11 40 -33 57 -49 18 -16 43 -31 55 -33 22 -3 22 -2 4 12
-12 9 -17 22 -13 34 4 17 -4 25 -40 43 -25 13 -49 32 -53 43 -9 23 -61 73
-103 99 -47 29 -23 30 33 2 61 -31 69 -32 43 -8 -23 20 -47 72 -34 72 5 0 25
-18 44 -40 19 -22 39 -40 44 -40 6 0 33 -23 61 -50 39 -39 60 -51 87 -54 34
-2 45 -9 114 -71 l34 -30 -39 50 c-47 61 -54 71 -99 159 -19 38 -33 72 -30 75
3 2 22 -11 43 -30 20 -18 48 -43 62 -55 14 -12 40 -36 58 -53 19 -17 40 -31
47 -31 15 0 20 -13 31 -75 4 -22 16 -46 27 -54 10 -7 25 -27 32 -44 l12 -30 8
39 c5 22 8 46 7 54 -1 8 5 3 13 -13 9 -15 17 -40 18 -56 2 -30 17 -33 17 -3 1
16 2 15 14 -1 10 -13 11 -28 5 -55 -11 -49 -11 -85 0 -78 19 12 41 -7 41 -35
0 -24 4 -29 24 -29 28 0 42 -26 25 -46 -9 -11 -8 -14 4 -14 9 0 21 -9 27 -20
6 -11 15 -18 19 -16 4 3 16 -1 27 -8 10 -8 24 -11 32 -8 10 3 13 -1 10 -14 -2
-10 -9 -18 -16 -17 -6 2 -9 -4 -6 -12 4 -8 2 -15 -4 -15 -5 0 -9 -11 -9 -25 0
-29 9 -32 27 -10 20 25 23 10 5 -26 -14 -27 -15 -31 -2 -26 9 3 17 -2 20 -14
8 -29 30 -24 25 6 -7 35 11 43 34 15 16 -19 20 -21 35 -9 15 12 16 12 11 -8
-3 -13 0 -27 7 -33 10 -9 14 -6 17 12 4 18 11 9 36 -46 18 -37 43 -77 57 -88
14 -11 25 -30 25 -42 0 -13 9 -31 20 -41 11 -10 20 -30 20 -44 0 -14 5 -33 10
-41 9 -13 11 -13 20 0 5 8 10 23 10 32 0 9 5 20 10 23 6 4 20 25 31 48 12 23
29 51 38 62 10 11 30 50 45 87 28 68 55 89 83 66 10 -8 13 -6 13 6 0 9 -7 16
-15 16 -8 0 -15 8 -15 19 0 10 7 24 15 31 13 11 15 8 15 -14 0 -24 3 -26 26
-20 25 6 26 5 21 -18 -5 -17 -2 -30 8 -38 13 -11 15 -8 15 15 0 20 4 26 15 21
18 -7 19 -2 3 24 -11 17 -10 22 2 30 11 7 17 5 21 -7 5 -15 6 -14 11 3 3 12
-3 30 -13 43 -23 28 -25 55 -4 47 8 -3 15 -1 15 4 0 6 9 10 20 10 11 0 25 9
32 20 7 11 18 20 23 20 6 0 11 12 10 28 0 22 5 28 26 30 24 3 27 9 33 54 7 49
7 50 26 33 23 -21 25 -12 9 34 -12 33 -5 81 11 81 6 0 10 -8 11 -17 1 -10 5 1
11 25 12 53 32 51 36 -3 l3 -39 19 41 c10 23 28 46 39 52 12 7 18 17 15 26 -4
8 -1 15 5 15 6 0 11 8 11 18 0 11 10 27 21 38 12 10 25 29 30 42 5 12 19 26
32 31 13 5 31 21 40 35 10 14 24 26 32 26 8 0 24 14 37 30 12 17 25 30 30 30
14 0 9 -27 -7 -40 -8 -7 -15 -19 -15 -27 0 -20 -66 -130 -104 -173 -32 -36
-18 -28 48 27 21 18 42 30 47 28 4 -3 20 0 35 5 27 11 56 34 177 142 28 25 54
44 57 41 3 -3 -1 -8 -7 -10z"/>
<path d="M426 1947 c3 -10 9 -15 12 -12 3 3 0 11 -7 18 -10 9 -11 8 -5 -6z"/>
<path d="M2110 1917 l-23 -32 29 27 c15 15 26 30 23 33 -3 2 -16 -10 -29 -28z"/>
<path d="M260 1895 c13 -14 26 -25 28 -25 3 0 -5 11 -18 25 -13 14 -26 25 -28
25 -3 0 5 -11 18 -25z"/>
<path d="M2075 1870 c-4 -6 -10 -8 -15 -5 -9 6 -25 -33 -17 -42 3 -2 11 5 17
17 10 18 14 20 21 9 6 -10 8 -7 6 9 -1 25 -3 26 -12 12z"/>
<path d="M500 1857 c0 -8 6 -20 14 -26 12 -10 13 -8 9 9 -7 25 -23 37 -23 17z"/>
<path d="M316 1827 c2 -7 14 -19 27 -26 21 -13 21 -12 -2 13 -27 29 -33 32
-25 13z"/>
<path d="M2160 1825 c-7 -9 -8 -15 -2 -15 5 0 12 7 16 15 3 8 4 15 2 15 -2 0
-9 -7 -16 -15z"/>
<path d="M2271 1773 c-7 -8 -11 -16 -8 -19 2 -2 10 2 17 11 17 20 9 27 -9 8z"/>
<path d="M2215 1700 c-3 -5 -1 -10 4 -10 6 0 11 5 11 10 0 6 -2 10 -4 10 -3 0
-8 -4 -11 -10z"/>
<path d="M530 1626 c0 -2 7 -7 16 -10 8 -3 12 -2 9 4 -6 10 -25 14 -25 6z"/>
<path d="M402 1608 c2 -6 15 -18 29 -27 l24 -15 -24 27 c-26 29 -35 34 -29 15z"/>
<path d="M2089 1543 c-13 -16 -12 -17 4 -4 9 7 17 15 17 17 0 8 -8 3 -21 -13z"/>
<path d="M554 1531 c21 -23 26 -26 26 -11 0 5 -10 15 -22 21 -23 12 -23 12 -4
-10z"/>
<path d="M1994 1529 c-19 -22 -19 -22 4 -8 12 8 22 17 22 21 0 12 -6 9 -26
-13z"/>
<path d="M749 1515 c-3 -11 1 -32 9 -47 15 -31 29 -39 17 -10 -4 9 -11 31 -15
47 -5 24 -8 26 -11 10z"/>
<path d="M1808 1520 c-4 -8 -9 -28 -13 -45 -6 -30 -6 -30 10 -7 9 12 15 32 12
45 -2 16 -5 18 -9 7z"/>
<path d="M440 1516 c0 -2 8 -10 18 -17 15 -13 16 -12 3 4 -13 16 -21 21 -21
13z"/>
<path d="M2107 1513 c-4 -3 -7 -11 -7 -17 0 -6 5 -5 12 2 6 6 9 14 7 17 -3 3
-9 2 -12 -2z"/>
<path d="M1747 1433 c-4 -3 -7 -11 -7 -17 0 -6 5 -5 12 2 6 6 9 14 7 17 -3 3
-9 2 -12 -2z"/>
<path d="M816 1417 c3 -10 9 -15 12 -12 3 3 0 11 -7 18 -10 9 -11 8 -5 -6z"/>
<path d="M498 1333 c6 -2 18 -2 25 0 6 3 1 5 -13 5 -14 0 -19 -2 -12 -5z"/>
<path d="M540 1288 c0 -6 3 -8 6 -5 4 3 16 2 28 -4 20 -10 20 -10 2 5 -24 19
-36 20 -36 4z"/>
<path d="M810 1243 c-53 -20 -82 -34 -78 -38 3 -3 18 1 34 10 16 8 37 15 47
15 9 0 17 5 17 10 0 6 -1 10 -2 9 -2 0 -10 -3 -18 -6z"/>
<path d="M1765 1229 c17 -7 36 -16 43 -22 7 -5 15 -8 17 -5 10 9 -19 26 -55
32 l-35 6 30 -11z"/>
<path d="M640 1216 c0 -2 13 -6 29 -8 17 -2 28 -1 25 4 -5 8 -54 12 -54 4z"/>
<path d="M1465 1188 l-16 -33 20 25 c20 24 26 40 16 40 -2 0 -12 -15 -20 -32z"/>
<path d="M1883 1213 c9 -2 23 -2 30 0 6 3 -1 5 -18 5 -16 0 -22 -2 -12 -5z"/>
<path d="M860 1129 c0 -5 5 -7 10 -4 6 3 10 8 10 11 0 2 -4 4 -10 4 -5 0 -10
-5 -10 -11z"/>
<path d="M695 1120 c3 -5 8 -10 11 -10 2 0 4 5 4 10 0 6 -5 10 -11 10 -5 0 -7
-4 -4 -10z"/>
<path d="M1850 1120 c0 -5 5 -10 10 -10 6 0 10 5 10 10 0 6 -4 10 -10 10 -5 0
-10 -4 -10 -10z"/>
</g>
</svg>
